# xmcd
#
# Track frame offsets:
#	150
#	3957
#	21775
#	38797
#	65645
#	70192
#	89707
#	133020
#	159380
#	175717
#	191287
#	211732
#	226737
#	261760
#
# Disc length: 3694 seconds
#
# Revision: 1
# Processed by: cddbd v1.5.1PL0 Copyright (c) Steve Scherf et al.
# Submitted via: CDex 1.50Beta5
#
DISCID=b10e6c0e
DTITLE=筋肉少女帯 - SAN FRANCISCO
DYEAR=1998
DGENRE=Rock
TTITLE0=SAN FRANCISCO(Be Sure To Wear Flowers In Your Hair
TTITLE1=サンフランシスコ
TTITLE2=タチムカウ-狂い咲く人間の証明-
TTITLE3=221B戦記(シングル・バージョン)
TTITLE4=冬の風鈴〜序文〜
TTITLE5=小さな恋のメロディー(シングル・バージョン)
TTITLE6=サーチライト
TTITLE7=旅の友
TTITLE8=カーネーション・リインカネーション(リミックス・バージョン)
TTITLE9=PARASITE
TTITLE10=僕の歌を総て君にやる
TTITLE11=人間のバラード
TTITLE12=サンフランシスコ10イヤーズ・アフター
TTITLE13=SAN FRANCISCO(エピローグ)
EXTD=
EXTT0=
EXTT1=
EXTT2=
EXTT3=
EXTT4=
EXTT5=
EXTT6=
EXTT7=
EXTT8=
EXTT9=
EXTT10=
EXTT11=
EXTT12=
EXTT13=
PLAYORDER=
